<svg version="1.1" id="Layer_1" xmlns="http://www.w3.org/2000/svg" xmlns:xlink="http://www.w3.org/1999/xlink" x="0px" y="0px"
	 width="100%" viewBox="0 0 1200 1200" enable-background="new 0 0 1200 1200" xml:space="preserve">
<path fill="#000000" opacity="1.000000" stroke="none" 
	d="
M676.000000,1201.000000 
	C450.666656,1201.000000 225.833328,1201.000000 1.000000,1201.000000 
	C1.000000,801.000000 1.000000,401.000000 1.000000,1.000000 
	C401.000000,1.000000 801.000000,1.000000 1201.000000,1.000000 
	C1201.000000,401.000000 1201.000000,801.000000 1201.000000,1201.000000 
	C1026.166626,1201.000000 851.333313,1201.000000 676.000000,1201.000000 
M684.989502,1046.383911 
	C684.379578,1048.809204 683.769653,1051.234619 683.074219,1054.000000 
	C685.422180,1054.000000 687.244080,1054.000000 689.066040,1054.000000 
	C744.894775,1054.000000 800.723572,1054.000000 856.552307,1054.000000 
	C898.882202,1054.000000 941.212036,1053.988892 983.541931,1054.023682 
	C986.553955,1054.026245 988.412598,1053.999146 989.255127,1049.901367 
	C992.824280,1032.542969 997.040710,1015.317261 1001.063599,998.053040 
	C1007.079285,972.236572 1013.133362,946.429077 1019.166992,920.616882 
	C1025.163452,894.963379 1031.114380,869.299133 1037.161011,843.657532 
	C1042.721802,820.075806 1048.422241,796.526917 1053.990845,772.946960 
	C1060.680786,744.619751 1067.316162,716.279724 1073.932617,687.935303 
	C1076.308716,677.755920 1078.561035,667.547668 1081.002075,656.768555 
	C1061.953247,656.768555 1043.552246,656.768555 1025.045654,656.768555 
	C1025.045654,655.632751 1024.917603,654.940613 1025.064209,654.312500 
	C1030.015747,633.090698 1035.095459,611.898193 1039.942993,590.652771 
	C1047.071899,559.408020 1053.935303,528.102661 1061.104980,496.867493 
	C1067.253052,470.082947 1073.728027,443.373627 1079.955200,416.606995 
	C1085.704590,391.894287 1091.284546,367.142151 1097.000610,342.421661 
	C1100.590820,326.895142 1104.357422,311.409332 1107.932983,295.879486 
	C1113.953979,269.727448 1119.864136,243.549957 1125.863281,217.392868 
	C1130.190552,198.525726 1134.619995,179.682037 1138.925293,160.809921 
	C1139.850952,156.751602 1140.437988,152.616028 1141.274536,148.000061 
	C1139.091675,148.000061 1137.621704,148.000061 1136.151733,148.000061 
	C1031.327026,147.999893 926.502197,148.025818 821.677673,147.882324 
	C818.288025,147.877686 816.643494,149.272659 815.066772,151.648361 
	C776.391296,209.921402 737.699463,268.183563 699.036194,326.464752 
	C671.642700,367.757904 644.298889,409.084015 616.901672,450.374695 
	C612.557556,456.921692 608.048340,463.359131 603.489441,470.031586 
	C602.749512,469.128845 602.242676,468.790619 602.159668,468.368988 
	C598.730530,450.949951 595.481689,433.494263 591.912170,416.104309 
	C585.726013,385.966522 579.228149,355.892548 573.076111,325.747925 
	C566.563232,293.834656 560.381042,261.853973 553.904297,229.933197 
	C548.725281,204.408783 543.116577,178.969315 538.206116,153.394714 
	C537.325928,148.810318 535.808960,147.920700 531.633728,147.924545 
	C427.309052,148.020493 322.984253,147.999649 218.659485,147.999466 
	C216.852066,147.999466 215.044647,147.999466 213.347672,147.999466 
	C212.821533,150.014542 212.365097,151.586624 212.001892,153.179947 
	C205.602875,181.250458 199.229431,209.326797 192.820862,237.395111 
	C187.209427,261.972168 181.589417,286.547302 175.921844,311.111420 
	C169.596268,338.527405 163.191177,365.924988 156.860382,393.339752 
	C150.162842,422.342712 143.566727,451.369202 136.823669,480.361542 
	C131.298035,504.119507 125.553596,527.826599 120.029655,551.584961 
	C113.289383,580.574768 106.670746,609.592834 100.017197,638.602722 
	C98.576286,644.885254 97.210632,651.184937 95.689743,658.018433 
	C114.149673,658.018433 131.928192,658.018433 150.311279,658.018433 
	C120.253929,790.279480 90.319145,922.001221 60.359867,1053.830811 
	C157.957886,1053.830811 255.255997,1053.830811 352.843658,1053.830811 
	C379.045044,942.491516 405.223999,831.247314 431.402985,720.003174 
	C431.767517,720.059692 432.132050,720.116211 432.496582,720.172729 
	C440.795044,765.415344 449.093506,810.657959 457.357147,855.710632 
	C457.983307,855.855957 458.141937,855.924927 458.300537,855.924988 
	C529.127197,855.952759 599.953796,855.990234 670.780334,855.893616 
	C672.146729,855.891785 674.021423,854.635498 674.796631,853.416199 
	C681.877014,842.281067 688.582520,830.905518 695.749634,819.828003 
	C710.093018,797.658752 724.634399,775.617371 739.142578,753.555054 
	C746.193481,742.833008 753.353760,732.182861 760.833435,720.945801 
	C760.908813,722.341919 761.095642,723.020386 760.956177,723.623352 
	C756.559998,742.627625 752.151367,761.629089 747.704224,780.621460 
	C742.105042,804.533569 736.473328,828.437988 730.850586,852.344482 
	C724.185974,880.680664 717.544434,909.022278 710.838745,937.348755 
	C705.931335,958.078979 700.931763,978.787415 695.982544,999.507690 
	C692.318298,1014.848450 688.668823,1030.192749 684.989502,1046.383911 
z"/>
<path fill="#FE4901" opacity="1.000000" stroke="none" 
	d="
M685.001099,1045.959717 
	C688.668823,1030.192749 692.318298,1014.848450 695.982544,999.507690 
	C700.931763,978.787415 705.931335,958.078979 710.838745,937.348755 
	C717.544434,909.022278 724.185974,880.680664 730.850586,852.344482 
	C736.473328,828.437988 742.105042,804.533569 747.704224,780.621460 
	C752.151367,761.629089 756.559998,742.627625 760.956177,723.623352 
	C761.095642,723.020386 760.908813,722.341919 760.833435,720.945801 
	C753.353760,732.182861 746.193481,742.833008 739.142578,753.555054 
	C724.634399,775.617371 710.093018,797.658752 695.749634,819.828003 
	C688.582520,830.905518 681.877014,842.281067 674.796631,853.416199 
	C674.021423,854.635498 672.146729,855.891785 670.780334,855.893616 
	C599.953796,855.990234 529.127197,855.952759 458.300537,855.924988 
	C458.141937,855.924927 457.983307,855.855957 457.357147,855.710632 
	C449.093506,810.657959 440.795044,765.415344 432.496582,720.172729 
	C432.132050,720.116211 431.767517,720.059692 431.402985,720.003174 
	C405.223999,831.247314 379.045044,942.491516 352.843658,1053.830811 
	C255.255997,1053.830811 157.957886,1053.830811 60.359867,1053.830811 
	C90.319145,922.001221 120.253929,790.279480 150.311279,658.018433 
	C131.928192,658.018433 114.149673,658.018433 95.689743,658.018433 
	C97.210632,651.184937 98.576286,644.885254 100.017197,638.602722 
	C106.670746,609.592834 113.289383,580.574768 120.029655,551.584961 
	C125.553596,527.826599 131.298035,504.119507 136.823669,480.361542 
	C143.566727,451.369202 150.162842,422.342712 156.860382,393.339752 
	C163.191177,365.924988 169.596268,338.527405 175.921844,311.111420 
	C181.589417,286.547302 187.209427,261.972168 192.820862,237.395111 
	C199.229431,209.326797 205.602875,181.250458 212.001892,153.179947 
	C212.365097,151.586624 212.821533,150.014542 213.347672,147.999466 
	C215.044647,147.999466 216.852066,147.999466 218.659485,147.999466 
	C322.984253,147.999649 427.309052,148.020493 531.633728,147.924545 
	C535.808960,147.920700 537.325928,148.810318 538.206116,153.394714 
	C543.116577,178.969315 548.725281,204.408783 553.904297,229.933197 
	C560.381042,261.853973 566.563232,293.834656 573.076111,325.747925 
	C579.228149,355.892548 585.726013,385.966522 591.912170,416.104309 
	C595.481689,433.494263 598.730530,450.949951 602.159668,468.368988 
	C602.242676,468.790619 602.749512,469.128845 603.489441,470.031586 
	C608.048340,463.359131 612.557556,456.921692 616.901672,450.374695 
	C644.298889,409.084015 671.642700,367.757904 699.036194,326.464752 
	C737.699463,268.183563 776.391296,209.921402 815.066772,151.648361 
	C816.643494,149.272659 818.288025,147.877686 821.677673,147.882324 
	C926.502197,148.025818 1031.327026,147.999893 1136.151733,148.000061 
	C1137.621704,148.000061 1139.091675,148.000061 1141.274536,148.000061 
	C1140.437988,152.616028 1139.850952,156.751602 1138.925293,160.809921 
	C1134.619995,179.682037 1130.190552,198.525726 1125.863281,217.392868 
	C1119.864136,243.549957 1113.953979,269.727448 1107.932983,295.879486 
	C1104.357422,311.409332 1100.590820,326.895142 1097.000610,342.421661 
	C1091.284546,367.142151 1085.704590,391.894287 1079.955200,416.606995 
	C1073.728027,443.373627 1067.253052,470.082947 1061.104980,496.867493 
	C1053.935303,528.102661 1047.071899,559.408020 1039.942993,590.652771 
	C1035.095459,611.898193 1030.015747,633.090698 1025.064209,654.312500 
	C1024.917603,654.940613 1025.045654,655.632751 1025.045654,656.768555 
	C1043.552246,656.768555 1061.953247,656.768555 1081.002075,656.768555 
	C1078.561035,667.547668 1076.308716,677.755920 1073.932617,687.935303 
	C1067.316162,716.279724 1060.680786,744.619751 1053.990845,772.946960 
	C1048.422241,796.526917 1042.721802,820.075806 1037.161011,843.657532 
	C1031.114380,869.299133 1025.163452,894.963379 1019.166992,920.616882 
	C1013.133362,946.429077 1007.079285,972.236572 1001.063599,998.053040 
	C997.040710,1015.317261 992.824280,1032.542969 989.255127,1049.901367 
	C988.412598,1053.999146 986.553955,1054.026245 983.541931,1054.023682 
	C941.212036,1053.988892 898.882202,1054.000000 856.552307,1054.000000 
	C800.723572,1054.000000 744.894775,1054.000000 689.066040,1054.000000 
	C687.244080,1054.000000 685.422180,1054.000000 683.074219,1054.000000 
	C683.769653,1051.234619 684.379578,1048.809204 685.001099,1045.959717 
z"/>
</svg>